<svg width="12" height="11" viewBox="0 0 12 11" fill="none" xmlns="http://www.w3.org/2000/svg">
<path d="M0.101172 4.82296C0.166238 4.66569 0.262689 4.51836 0.390524 4.39052L4.39052 0.390524C4.91122 -0.130175 5.75544 -0.130175 6.27614 0.390524C6.79684 0.911223 6.79684 1.75544 6.27614 2.27614L4.55229 4L10.6667 4C11.403 4 12 4.59695 12 5.33333C12 6.06971 11.403 6.66667 10.6667 6.66667L4.55229 6.66667L6.27614 8.39052C6.79684 8.91122 6.79684 9.75544 6.27614 10.2761C5.75544 10.7968 4.91122 10.7968 4.39052 10.2761L0.390524 6.27614C-0.00233936 5.88328 -0.0987903 5.30625 0.101172 4.82296Z" fill="#73AEEA"/>
</svg>
